<?xml version="1.0" encoding="utf-8"?><!-- Uploaded to: SVG Repo, www.svgrepo.com, Generator: SVG Repo Mixer Tools -->
<svg fill="#000000" width="800px" height="800px" viewBox="0 0 24 24" id="school-bag" data-name="Flat Color" xmlns="http://www.w3.org/2000/svg" class="icon flat-color"><path id="secondary" d="M19,20H18a1,1,0,0,1-1-1V15a1,1,0,0,1,1-1h2a1,1,0,0,1,1,1v3A2,2,0,0,1,19,20ZM6,20H5a2,2,0,0,1-2-2V15a1,1,0,0,1,1-1H6a1,1,0,0,1,1,1v4A1,1,0,0,1,6,20Z" style="fill: rgb(44, 169, 188);"></path><path id="primary" d="M14,6H10A1,1,0,0,1,9,5V4a2,2,0,0,1,2-2h2a2,2,0,0,1,2,2V5A1,1,0,0,1,14,6Zm4.5,3.86a1,1,0,0,0-1,0A1,1,0,0,1,17,10H7a1,1,0,0,1-.5-.14,1,1,0,0,0-1,0,1,1,0,0,0-.5.86V20a2,2,0,0,0,2,2H17a2,2,0,0,0,2-2V10.72A1,1,0,0,0,18.5,9.86Z" style="fill: rgb(0, 0, 0);"></path><path id="secondary-2" data-name="secondary" d="M20,6V9a3,3,0,0,1-3,3H7A3,3,0,0,1,4,9V6A2,2,0,0,1,6,4H18A2,2,0,0,1,20,6ZM15,17a1,1,0,0,0-1-1H10a1,1,0,0,0,0,2h4A1,1,0,0,0,15,17Z" style="fill: rgb(44, 169, 188);"></path><path id="primary-2" data-name="primary" d="M12,13a1,1,0,0,1-1-1V10a1,1,0,0,1,2,0v2A1,1,0,0,1,12,13Z" style="fill: rgb(0, 0, 0);"></path></svg>